<?xml version="1.0" encoding="utf-8"?>
<!-- Generator: Adobe Illustrator 14.0.0, SVG Export Plug-In . SVG Version: 6.00 Build 43363)  -->
<!DOCTYPE svg PUBLIC "-//W3C//DTD SVG 1.1//EN" "http://www.w3.org/Graphics/SVG/1.1/DTD/svg11.dtd">
<svg version="1.1" id="Layer_1" xmlns="http://www.w3.org/2000/svg" xmlns:xlink="http://www.w3.org/1999/xlink" x="0px" y="0px"
	 width="640px" height="480px" viewBox="0 0 640 480" enable-background="new 0 0 640 480" xml:space="preserve">
<rect y="-9.318" fill="#C9C9C9" width="213.333" height="504.545"/>
<rect x="213.333" y="-9.318" fill="#DDDDDD" width="213.333" height="504.545"/>
<rect x="426.667" y="-9.318" fill="#C1C1C1" width="213.333" height="504.545"/>
<g>
	<path fill="#A09F9F" d="M288.082,311.445l-0.981-12.767c-2.947-26.025,5.892-55.487,30.444-84.949
		c22.097-26.025,34.373-45.176,34.373-67.272c0-25.043-15.713-41.738-46.649-42.229c-17.678,0-37.318,5.892-49.594,15.222
		l-11.786-30.935c16.695-11.785,44.193-19.642,70.219-19.642c56.468,0,82.002,34.863,82.002,72.182
		c0,33.391-18.659,57.451-42.229,85.44c-21.604,25.534-29.462,47.63-27.988,72.673l0.981,12.275H288.082z M277.771,380.682
		c0-18.168,12.276-30.936,28.971-30.936c17.677,0,28.971,12.768,28.971,30.936c0,17.187-11.294,30.444-29.461,30.444
		C289.556,411.126,277.771,397.868,277.771,380.682z"/>
</g>
</svg>
